<svg width="24" height="24" viewBox="0 0 24 24" fill="none" xmlns="http://www.w3.org/2000/svg">
<path d="M12 0C9.62663 0 7.30655 0.703787 5.33316 2.02236C3.35977 3.34094 1.8217 5.21508 0.913451 7.4078C0.00519935 9.60051 -0.232441 12.0133 0.230582 14.3411C0.693605 16.6689 1.83649 18.807 3.51472 20.4853C5.19295 22.1635 7.33115 23.3064 9.65892 23.7694C11.9867 24.2324 14.3995 23.9948 16.5922 23.0865C18.7849 22.1783 20.6591 20.6402 21.9776 18.6668C23.2962 16.6934 24 14.3734 24 12C24 8.8174 22.7357 5.76515 20.4853 3.51472C18.2348 1.26428 15.1826 0 12 0ZM12 21.8667C10.0486 21.8667 8.14094 21.288 6.51838 20.2038C4.89581 19.1197 3.63118 17.5787 2.88439 15.7758C2.13761 13.9729 1.94222 11.9891 2.32292 10.0751C2.70363 8.16116 3.64334 6.40309 5.02322 5.02321C6.40309 3.64333 8.16117 2.70363 10.0751 2.32292C11.9891 1.94221 13.9729 2.1376 15.7758 2.88439C17.5787 3.63117 19.1197 4.89581 20.2038 6.51837C21.288 8.14094 21.8667 10.0486 21.8667 12C21.8631 14.6157 20.8225 17.1233 18.9729 18.9729C17.1233 20.8225 14.6157 21.8631 12 21.8667ZM16.3867 5.72L12 10.12L7.61334 5.72L5.72 7.61333L10.12 12L5.72 16.3867L7.61334 18.28L12 13.88L16.3867 18.28L18.28 16.3867L13.88 12L18.28 7.61333L16.3867 5.72Z" fill="black"/>
</svg>
