<svg xmlns="http://www.w3.org/2000/svg" width="16" height="16" fill="none"><g clip-path="url(#a)"><path fill="#ADFFB0" stroke="#000" d="M.707 8 8 .707 15.293 8 8 15.293z"/><path stroke="#000" d="m2 9 1-1m0 0 5-5 5 5-5 5z"/><path fill="#000" d="M12 7H9.5L8 5.5 6.5 7zM12 9H6.5L8 10.5 9.5 9z"/><path fill="#000" d="m12 7 .354-.354L12 6.5zM6.5 7l-.354-.354-.853.854H6.5zM12 9v.5l.354-.146zM6.5 9v-.5H5.293l.853.854zM8 5.5l.354-.354L8 4.793l-.354.353zM9.5 7l-.354.354.147.146H9.5zM8 10.5l-.354.354.354.353.354-.353zM9.5 9v-.5h-.207l-.147.146zM13 8l.354.354.353-.354-.353-.354zm-6.5-.5H12v-1H6.5zm5.5 1H6.5v1H12zM7.646 5.146l-1.5 1.5.708.708 1.5-1.5zM12 6.5H9.5v1H12zm-2.146.146-1.5-1.5-.708.708 1.5 1.5zM6.146 9.354l1.5 1.5.708-.708-1.5-1.5zm2.208 1.5 1.5-1.5-.708-.708-1.5 1.5zM9.5 9.5H12v-1H9.5zm2.146-2.146 1 1 .708-.708-1-1zm1 .292-1 1 .708.708 1-1z"/></g><defs><clipPath id="a"><path fill="#fff" d="M0 0h16v16H0z"/></clipPath></defs></svg>