<svg width="16" height="16" viewBox="0 0 16 16" fill="none" xmlns="http://www.w3.org/2000/svg">
<g clip-path="url(#clip0_200_629)">
<path d="M0.707107 8L8 0.707107L15.2929 8L8 15.2929L0.707107 8Z" fill="#ADFFB0" stroke="black"/>
<path d="M2 9L3 8M3 8L8 3L13 8L8 13L3 8Z" stroke="black"/>
<path d="M12 7H9.5L8 5.5L6.5 7H12Z" fill="black"/>
<path d="M12 9L6.5 9L8 10.5L9.5 9H12Z" fill="black"/>
<path d="M12 7L12.3536 6.64645L12 6.5V7ZM6.5 7L6.14645 6.64645L5.29289 7.5H6.5V7ZM12 9L12 9.5L12.3536 9.35355L12 9ZM6.5 9L6.5 8.5L5.29289 8.5L6.14645 9.35355L6.5 9ZM8 5.5L8.35355 5.14645L8 4.79289L7.64645 5.14645L8 5.5ZM9.5 7L9.14645 7.35355L9.29289 7.5H9.5V7ZM8 10.5L7.64645 10.8536L8 11.2071L8.35355 10.8536L8 10.5ZM9.5 9V8.5H9.29289L9.14645 8.64645L9.5 9ZM13 8L13.3536 8.35355L13.7071 8L13.3536 7.64645L13 8ZM6.5 7.5H12V6.5H6.5V7.5ZM12 8.5L6.5 8.5L6.5 9.5L12 9.5L12 8.5ZM7.64645 5.14645L6.14645 6.64645L6.85355 7.35355L8.35355 5.85355L7.64645 5.14645ZM12 6.5H9.5V7.5H12V6.5ZM9.85355 6.64645L8.35355 5.14645L7.64645 5.85355L9.14645 7.35355L9.85355 6.64645ZM6.14645 9.35355L7.64645 10.8536L8.35355 10.1464L6.85355 8.64645L6.14645 9.35355ZM8.35355 10.8536L9.85355 9.35355L9.14645 8.64645L7.64645 10.1464L8.35355 10.8536ZM9.5 9.5H12V8.5H9.5V9.5ZM11.6464 7.35355L12.6464 8.35355L13.3536 7.64645L12.3536 6.64645L11.6464 7.35355ZM12.6464 7.64645L11.6464 8.64645L12.3536 9.35355L13.3536 8.35355L12.6464 7.64645Z" fill="black"/>
</g>
<defs>
<clipPath id="clip0_200_629">
<rect width="16" height="16" fill="white"/>
</clipPath>
</defs>
</svg>
