<svg width="16" height="16" viewBox="0 0 16 16" fill="none" xmlns="http://www.w3.org/2000/svg">
<path d="M0.707107 8L8 0.707107L15.2929 8L8 15.2929L0.707107 8Z" fill="#ADFFB0" stroke="black"/>
<path d="M2 9L3 8M3 8L8 3L13 8L8 13L3 8Z" stroke="black"/>
<path d="M12 7.125H9.875L8 5.25L6.125 7.125H12Z" fill="black"/>
<path d="M12 8.875H6.125L8 10.75L9.875 8.875H12Z" fill="black"/>
<path d="M12 7.125L12.3536 6.77145L12 6.625V7.125ZM6.125 7.125L5.77145 6.77145L4.91789 7.625H6.125V7.125ZM12 8.875V9.375L12.3536 9.22855L12 8.875ZM6.125 8.875V8.375H4.91789L5.77145 9.22855L6.125 8.875ZM8 5.25L8.35355 4.89645L8 4.54289L7.64645 4.89645L8 5.25ZM9.875 7.125L9.52145 7.47855L9.66789 7.625H9.875V7.125ZM8 10.75L7.64645 11.1036L8 11.4571L8.35355 11.1036L8 10.75ZM9.875 8.875V8.375H9.66789L9.52145 8.52145L9.875 8.875ZM12.875 8L13.2286 8.35355L13.5821 8L13.2286 7.64645L12.875 8ZM6.125 7.625H12V6.625H6.125V7.625ZM12 8.375H6.125V9.375H12V8.375ZM7.64645 4.89645L5.77145 6.77145L6.47855 7.47855L8.35355 5.60355L7.64645 4.89645ZM12 6.625H9.875V7.625H12V6.625ZM10.2286 6.77145L8.35355 4.89645L7.64645 5.60355L9.52145 7.47855L10.2286 6.77145ZM5.77145 9.22855L7.64645 11.1036L8.35355 10.3964L6.47855 8.52145L5.77145 9.22855ZM8.35355 11.1036L10.2286 9.22855L9.52145 8.52145L7.64645 10.3964L8.35355 11.1036ZM9.875 9.375H12V8.375H9.875V9.375ZM11.6464 7.47855L12.5214 8.35355L13.2286 7.64645L12.3536 6.77145L11.6464 7.47855ZM12.5214 7.64645L11.6464 8.52145L12.3536 9.22855L13.2286 8.35355L12.5214 7.64645Z" fill="black"/>
</svg>
