<svg width="24" height="24" viewBox="0 0 24 24" fill="none" xmlns="http://www.w3.org/2000/svg">
<path fill-rule="evenodd" clip-rule="evenodd" d="M11.3744 0.188629C11.7501 -0.0628763 12.2499 -0.0628763 12.6256 0.188629L23.5347 7.49297C23.8263 7.68823 24 8.00732 24 8.34782V15.6522C24 15.9926 23.8263 16.3117 23.5347 16.507L12.6256 23.8113C12.2499 24.0629 11.7501 24.0629 11.3744 23.8113L0.465316 16.507C0.173684 16.3117 0 15.9926 0 15.6522V8.34782C0 8.00732 0.173684 7.68823 0.465316 7.49297L11.3744 0.188629ZM2.18182 10.352V13.6479L4.64314 12L2.18182 10.352ZM6.54545 13.2738L2.99323 15.6522L10.9091 20.9523V16.1955L6.54545 13.2738ZM13.0909 16.1955V20.9523L21.0068 15.6522L17.4545 13.2738L13.0909 16.1955ZM19.3569 12L21.8182 13.6479V10.352L19.3569 12ZM21.0068 8.34782L17.4545 10.7262L13.0909 7.80452V3.04764L21.0068 8.34782ZM10.9091 3.04764V7.80452L6.54545 10.7262L2.99323 8.34782L10.9091 3.04764ZM12 9.62159L8.44777 12L12 14.3784L15.5522 12L12 9.62159Z" fill="black"/>
</svg>
