<svg width="24" height="24" viewBox="0 0 24 24" fill="none" xmlns="http://www.w3.org/2000/svg">
<path d="M22.3889 16.8889H7.11111M7.11111 16.8889V1.61111M7.11111 16.8889L1.61111 22.3889M1.61111 7.11111H16.8889M16.8889 7.11111V22.3889M16.8889 7.11111L22.3889 1.61111M23 16.0789V1.97778C23 1.63552 23 1.4644 22.9334 1.33367C22.8748 1.21868 22.7813 1.12519 22.6663 1.06661C22.5356 1 22.3644 1 22.0222 1H7.92113C7.62218 1 7.47272 1 7.33205 1.03377C7.20734 1.06371 7.08812 1.11309 6.97877 1.18011C6.85542 1.25569 6.74972 1.36139 6.53834 1.57277L1.57277 6.53834C1.36139 6.74972 1.25569 6.85542 1.18011 6.97877C1.11309 7.08812 1.06371 7.20734 1.03377 7.33205C1 7.47272 1 7.62218 1 7.92113V22.0222C1 22.3644 1 22.5356 1.06661 22.6663C1.12519 22.7813 1.21868 22.8748 1.33367 22.9334C1.4644 23 1.63552 23 1.97778 23H16.0789C16.3778 23 16.5272 23 16.6679 22.9663C16.7927 22.9363 16.9119 22.8869 17.0213 22.8198C17.1446 22.7443 17.2503 22.6386 17.4616 22.4273L22.4273 17.4616C22.6386 17.2503 22.7443 17.1446 22.8198 17.0213C22.8869 16.9119 22.9363 16.7927 22.9663 16.6679C23 16.5272 23 16.3778 23 16.0789Z" stroke="black" stroke-width="2" stroke-linecap="round" stroke-linejoin="round"/>
</svg>