<svg width="24" height="24" viewBox="0 0 24 24" fill="none" xmlns="http://www.w3.org/2000/svg">
<path fill-rule="evenodd" clip-rule="evenodd" d="M24 7.97185C24 6.34649 23.408 5.01716 22.4252 3.97581C22.583 3.59847 23.1084 2.08379 22.2732 0.0344332C22.2732 0.0344332 20.9879 -0.365571 18.0611 1.56112C16.8381 1.23044 15.5267 1.06512 14.224 1.05978C12.9213 1.06512 11.6099 1.23044 10.3882 1.56112C7.46007 -0.365571 6.1733 0.0344332 6.1733 0.0344332C5.33813 2.08379 5.865 3.59847 6.02276 3.97581C5.0414 5.01716 4.44506 6.34649 4.44506 7.97185C4.44506 13.6786 8.02313 14.9559 11.4261 15.3319C11.4261 15.3319 8.97988 16.7279 8.97988 19.0746C8.10708 19.456 4.41321 20.624 3.04538 18.3479C3.04538 18.3479 2.23626 16.9186 0.697634 16.8133C0.697634 16.8133 -0.79903 16.7946 0.591966 17.7186C0.591966 17.7186 1.5965 18.1773 2.29416 19.8973C2.29416 19.8973 3.06998 23.5213 8.93068 21.8933C8.99002 21.9213 8.95239 23.6467 8.95239 24H19.4984C19.4984 24 19.5158 20.5373 19.5158 19.436C19.5158 16.7279 17.5531 15.7799 17.0016 15.3199C20.4161 14.9519 24 13.6932 24 7.97185Z" fill="black"/>
</svg>