<svg width="24" height="24" viewBox="0 0 24 24" fill="none" xmlns="http://www.w3.org/2000/svg">
<path fill-rule="evenodd" clip-rule="evenodd" d="M5.44834 22.9404V7.46181H0.30411V22.9404H5.44834V22.9404ZM2.87676 5.34924C4.6701 5.34924 5.78721 4.15966 5.78721 2.67434C5.7533 1.15599 4.6701 0 2.91039 0C1.15041 4.69668e-05 0 1.15604 0 2.67438C0 4.15971 1.1165 5.34929 2.8429 5.34929L2.87676 5.34924ZM8.29547 22.9404C8.29547 22.9404 8.36296 8.91412 8.29547 7.46185H13.4405V9.70659H13.4064C14.0829 8.6503 15.3017 7.09838 18.0767 7.09838C21.4623 7.09838 24 9.31066 24 14.0651V22.9405H18.8558V14.6598C18.8558 12.5792 18.1115 11.1594 16.2493 11.1594C14.8284 11.1594 13.9816 12.1165 13.6097 13.0418C13.4736 13.3711 13.4405 13.8337 13.4405 14.2963V22.9404H8.29547Z" fill="black"/>
</svg>